<svg xmlns="http://www.w3.org/2000/svg" width="1360" height="680" viewBox="0 0 1360 680">
<style>
  .node { font-family: ui-sans-serif, system-ui, -apple-system, Segoe UI, Roboto, Arial; font-size: 13px; }
  .mono { font-family: ui-monospace, SFMono-Regular, Menlo, Consolas, "Liberation Mono", monospace; font-size: 12px; }
  .nlabel { dominant-baseline: middle; text-anchor: middle; }
  .edge { stroke: #111; stroke-width: 1.5; }
  .box { fill: #fff; stroke: #111; stroke-width: 1.5; rx: 6; }
  .elabel { font-family: ui-sans-serif, system-ui, -apple-system, Segoe UI, Roboto, Arial; font-size: 12px; fill: #111; }
  .title { font: 600 16px ui-sans-serif, system-ui }
  .small { font: 12px ui-sans-serif, system-ui }
</style>
<rect x="0" y="0" width="1360" height="680" fill="#ffffff" />
<text x="20" y="28" class="title">Recursion Tree: print all subsequences of nums = {1, 2, 3}</text>
<rect class="box" x="20" y="52" width="720" height="70" />
<text x="30" y="74" class="small">Base case: index == n, where n = nums.Length (C#)</text>
<text x="30" y="96" class="mono">When index == nums.Length: result.Add(new List&lt;int&gt;(subset)); return;</text>
<line class="edge" x1="110.0" y1="418" x2="40" y2="502"/>
<text class="elabel" x="75.0" y="456.0" text-anchor="middle">include 3</text>
<line class="edge" x1="110.0" y1="418" x2="180" y2="502"/>
<text class="elabel" x="145.0" y="456.0" text-anchor="middle">exclude</text>
<line class="edge" x1="390.0" y1="418" x2="320" y2="502"/>
<text class="elabel" x="355.0" y="456.0" text-anchor="middle">include 3</text>
<line class="edge" x1="390.0" y1="418" x2="460" y2="502"/>
<text class="elabel" x="425.0" y="456.0" text-anchor="middle">exclude</text>
<line class="edge" x1="250.0" y1="298" x2="110.0" y2="382"/>
<text class="elabel" x="180.0" y="336.0" text-anchor="middle">include 2</text>
<line class="edge" x1="250.0" y1="298" x2="390.0" y2="382"/>
<text class="elabel" x="320.0" y="336.0" text-anchor="middle">exclude</text>
<line class="edge" x1="670.0" y1="418" x2="600" y2="502"/>
<text class="elabel" x="635.0" y="456.0" text-anchor="middle">include 3</text>
<line class="edge" x1="670.0" y1="418" x2="740" y2="502"/>
<text class="elabel" x="705.0" y="456.0" text-anchor="middle">exclude</text>
<line class="edge" x1="950.0" y1="418" x2="880" y2="502"/>
<text class="elabel" x="915.0" y="456.0" text-anchor="middle">include 3</text>
<line class="edge" x1="950.0" y1="418" x2="1020" y2="502"/>
<text class="elabel" x="985.0" y="456.0" text-anchor="middle">exclude</text>
<line class="edge" x1="810.0" y1="298" x2="670.0" y2="382"/>
<text class="elabel" x="740.0" y="336.0" text-anchor="middle">include 2</text>
<line class="edge" x1="810.0" y1="298" x2="950.0" y2="382"/>
<text class="elabel" x="880.0" y="336.0" text-anchor="middle">exclude</text>
<line class="edge" x1="530.0" y1="178" x2="250.0" y2="262"/>
<text class="elabel" x="390.0" y="216.0" text-anchor="middle">include 1</text>
<line class="edge" x1="530.0" y1="178" x2="810.0" y2="262"/>
<text class="elabel" x="670.0" y="216.0" text-anchor="middle">exclude</text>
<rect class="box" x="488.5" y="142" width="83" height="36" />
<text class="node nlabel" x="530.0" y="160">i=0, S=[]</text>
<rect class="box" x="210.0" y="262" width="80" height="36" />
<text class="node nlabel" x="250.0" y="280">S=[1]</text>
<rect class="box" x="70.0" y="382" width="80" height="36" />
<text class="node nlabel" x="110.0" y="400">S=[1, 2]</text>
<rect class="box" x="-8.5" y="502" width="97" height="36" />
<text class="node nlabel" x="40" y="520">S=[1, 2, 3]</text>
<rect class="box" x="140.0" y="502" width="80" height="36" />
<text class="node nlabel" x="180" y="520">S=[1, 2]</text>
<rect class="box" x="350.0" y="382" width="80" height="36" />
<text class="node nlabel" x="390.0" y="400">S=[1]</text>
<rect class="box" x="280.0" y="502" width="80" height="36" />
<text class="node nlabel" x="320" y="520">S=[1, 3]</text>
<rect class="box" x="420.0" y="502" width="80" height="36" />
<text class="node nlabel" x="460" y="520">S=[1]</text>
<rect class="box" x="770.0" y="262" width="80" height="36" />
<text class="node nlabel" x="810.0" y="280">S=[]</text>
<rect class="box" x="630.0" y="382" width="80" height="36" />
<text class="node nlabel" x="670.0" y="400">S=[2]</text>
<rect class="box" x="560.0" y="502" width="80" height="36" />
<text class="node nlabel" x="600" y="520">S=[2, 3]</text>
<rect class="box" x="700.0" y="502" width="80" height="36" />
<text class="node nlabel" x="740" y="520">S=[2]</text>
<rect class="box" x="910.0" y="382" width="80" height="36" />
<text class="node nlabel" x="950.0" y="400">S=[]</text>
<rect class="box" x="840.0" y="502" width="80" height="36" />
<text class="node nlabel" x="880" y="520">S=[3]</text>
<rect class="box" x="980.0" y="502" width="80" height="36" />
<text class="node nlabel" x="1020" y="520">S=[]</text>
<text x="20" y="570" class="small">At each node at index i: choose to include nums[i] or exclude it. DFS takes "include" first.</text>
<text x="20" y="588" class="small">Leaf (index == n) nodes correspond to subsequences added to result.</text>
<rect class="box" x="1080" y="90" width="260" height="520" />
<text x="1090" y="112" class="title">Output (DFS order)</text>
<text x="1092" y="136" class="small">• [1, 2, 3]</text>
<text x="1092" y="152" class="small">• [1, 2]</text>
<text x="1092" y="168" class="small">• [1, 3]</text>
<text x="1092" y="184" class="small">• [1]</text>
<text x="1092" y="200" class="small">• [2, 3]</text>
<text x="1092" y="216" class="small">• [2]</text>
<text x="1092" y="232" class="small">• [3]</text>
<text x="1092" y="248" class="small">• []</text>
</svg>